# Blender 3.6.14
# www.blender.org
mtllib PussinBoots.mtl
o Puss
v -0.054503 5.199143 0.460644
v -0.315489 5.283591 0.344855
v -0.290831 5.194450 0.640708
v 0.187441 5.179251 0.718999
v -0.142149 5.179682 0.871882
v -0.017882 5.210460 1.050650
v 0.187441 5.179251 0.718999
v -0.017882 5.210460 1.050650
v 0.009950 5.310785 0.971479
v 0.258730 5.501127 0.595805
v 0.054628 5.584921 0.602845
v 0.177675 5.513993 0.320095
v -0.023497 5.310279 0.340149
v -0.054503 5.199143 0.460644
v 0.173525 5.313536 0.511870
v -0.054503 5.199143 0.460644
v -0.023497 5.310279 0.340149
v -0.315489 5.283591 0.344855
v 0.173525 5.313536 0.511870
v -0.054503 5.199143 0.460644
v 0.187441 5.179251 0.718999
v 0.009950 5.310785 0.971479
v -0.039122 5.392108 0.745179
v 0.173525 5.313536 0.511870
v -0.142149 5.179682 0.871882
v -0.394591 5.204052 0.953856
v -0.017882 5.210460 1.050650
v -0.315489 5.283591 0.344855
v -0.491026 5.260723 0.645384
v -0.290831 5.194450 0.640708
v 0.009950 5.310785 0.971479
v 0.173525 5.313536 0.511870
v 0.187441 5.179251 0.718999
v -0.054503 5.199143 0.460644
v -0.290831 5.194450 0.640708
v -0.315489 5.283591 0.344855
v 0.187441 5.179251 0.718999
v -0.017882 5.210460 1.050650
v -0.142149 5.179682 0.871882
v 0.187441 5.179251 0.718999
v 0.009950 5.310785 0.971479
v -0.017882 5.210460 1.050650
v 0.258730 5.501127 0.595805
v 0.177675 5.513993 0.320095
v 0.054628 5.584921 0.602845
v -0.023497 5.310279 0.340149
v 0.173525 5.313536 0.511870
v -0.054503 5.199143 0.460644
v -0.054503 5.199143 0.460644
v -0.315489 5.283591 0.344855
v -0.023497 5.310279 0.340149
v 0.173525 5.313536 0.511870
v 0.187441 5.179251 0.718999
v -0.054503 5.199143 0.460644
v 0.009950 5.310785 0.971479
v 0.173525 5.313536 0.511870
v -0.039122 5.392108 0.745179
v -0.142149 5.179682 0.871882
v -0.017882 5.210460 1.050650
v -0.394591 5.204052 0.953856
v -0.315489 5.283591 0.344855
v -0.290831 5.194450 0.640708
v -0.491026 5.260723 0.645384
v 0.009950 5.310785 0.971479
v 0.187441 5.179251 0.718999
v 0.173525 5.313536 0.511870
v -0.054014 4.975461 0.371669
v 0.197695 4.828497 0.416919
v 0.148866 4.929334 0.524828
v -0.054014 4.975461 0.371669
v -0.291319 4.925637 0.460280
v -0.305479 4.824152 0.343066
v -0.291319 4.925637 0.460280
v -0.548887 4.887197 -0.145768
v -0.053282 4.990525 0.253240
v -0.053282 4.990525 0.253240
v -0.548887 4.887197 -0.145768
v -0.196593 4.902751 -0.224865
v -0.053282 4.990525 0.253240
v -0.054014 4.975461 0.371669
v -0.291319 4.925637 0.460280
v 0.148866 4.929334 0.524828
v -0.053282 4.990525 0.253240
v 0.119325 4.756586 -0.321311
v -0.053282 4.990525 0.253240
v -0.196593 4.902751 -0.224865
v 0.119325 4.756586 -0.321311
v -0.053282 4.990525 0.253240
v 0.148866 4.929334 0.524828
v -0.054014 4.975461 0.371669
v -0.054014 4.975461 0.371669
v 0.148866 4.929334 0.524828
v 0.197695 4.828497 0.416919
v 0.192323 4.043570 -0.334167
v 0.098818 4.025005 -0.366344
v 0.341249 4.112349 -0.964822
v -0.054014 4.975461 0.371669
v -0.305479 4.824152 0.343066
v -0.291319 4.925637 0.460280
v 0.098818 4.025005 -0.366344
v 0.341249 4.112349 -0.964822
v 0.192323 4.043570 -0.334167
v -0.291319 4.925637 0.460280
v -0.053282 4.990525 0.253240
v -0.548887 4.887197 -0.145768
v -0.053282 4.990525 0.253240
v -0.196593 4.902751 -0.224865
v -0.548887 4.887197 -0.145768
v -0.053282 4.990525 0.253240
v -0.291319 4.925637 0.460280
v -0.054014 4.975461 0.371669
v 0.148866 4.929334 0.524828
v 0.119325 4.756586 -0.321311
v -0.053282 4.990525 0.253240
v -0.053282 4.990525 0.253240
v 0.119325 4.756586 -0.321311
v -0.196593 4.902751 -0.224865
v -0.053282 4.990525 0.253240
v -0.054014 4.975461 0.371669
v 0.148866 4.929334 0.524828
v 0.054628 5.584921 0.602845
v 0.045839 5.254305 0.722871
v 0.019716 5.263583 0.723466
v 0.054628 5.584921 0.602845
v 0.258730 5.501127 0.595805
v 0.045839 5.254305 0.722871
v -0.142149 5.179682 0.871882
v -0.491026 5.260723 0.645384
v -0.394591 5.204052 0.953856
v -0.142149 5.179682 0.871882
v -0.290831 5.194450 0.640708
v -0.491026 5.260723 0.645384
v 0.054628 5.584921 0.602845
v 0.045839 5.254305 0.722871
v 0.258730 5.501127 0.595805
v 0.054628 5.584921 0.602845
v 0.019716 5.263583 0.723466
v 0.045839 5.254305 0.722871
v 0.187441 5.179251 0.718999
v -0.054503 5.199143 0.460644
v -0.107725 5.377833 0.579863
v -0.054503 5.199143 0.460644
v -0.290831 5.194450 0.640708
v -0.107725 5.377833 0.579863
v -0.107725 5.377833 0.579863
v -0.290831 5.194450 0.640708
v -0.130919 5.388144 0.776123
v -0.290831 5.194450 0.640708
v -0.142149 5.179682 0.871882
v -0.130919 5.388144 0.776123
v -0.130919 5.388144 0.776123
v -0.142149 5.179682 0.871882
v 0.187441 5.179251 0.718999
v 0.187441 5.179251 0.718999
v -0.107725 5.377833 0.579863
v -0.130919 5.388144 0.776123
v -0.142149 5.179682 0.871882
v -0.491026 5.260723 0.645384
v -0.290831 5.194450 0.640708
v -0.142149 5.179682 0.871882
v -0.394591 5.204052 0.953856
v -0.491026 5.260723 0.645384
v -0.548887 4.887197 -0.145768
v -0.387511 4.972592 -0.767949
v -0.196593 4.902751 -0.224865
v -0.548887 4.887197 -0.145768
v -0.847716 4.922582 -0.652283
v -0.387511 4.972592 -0.767949
v -0.387511 4.972592 -0.767949
v -0.025938 4.755279 -0.990925
v 0.119325 4.756586 -0.321311
v 0.119325 4.756586 -0.321311
v -0.196593 4.902751 -0.224865
v -0.387511 4.972592 -0.767949
v -0.061583 4.094145 -0.034688
v 0.014345 4.035029 -0.038147
v -0.401915 3.657666 0.220272
v -0.401915 3.657666 0.220272
v -0.553282 3.775352 0.284553
v -0.061583 4.094145 -0.034688
v -0.699522 3.261856 0.412034
v -0.553282 3.775352 0.284553
v -0.401915 3.657666 0.220272
v -0.553282 3.775352 0.284553
v -0.699522 3.261856 0.412034
v -0.787657 3.321335 0.449888
v -0.787657 3.321335 0.449888
v -0.525206 3.491504 0.520781
v -0.553282 3.775352 0.284553
v -0.787657 3.321335 0.449888
v -0.628966 3.392977 0.787300
v -0.525206 3.491504 0.520781
v -0.439757 3.292397 0.766610
v -0.628966 3.392977 0.787300
v -0.787657 3.321335 0.449888
v -0.439757 3.292397 0.766610
v -0.787657 3.321335 0.449888
v -0.699522 3.261856 0.412034
v -0.525206 3.491504 0.520781
v -0.628966 3.392977 0.787300
v -0.439757 3.292397 0.766610
v -0.439757 3.292397 0.766610
v -0.699522 3.261856 0.412034
v -0.525206 3.491504 0.520781
v -0.525206 3.491504 0.520781
v -0.699522 3.261856 0.412034
v -0.401915 3.657666 0.220272
v -0.355284 3.731667 0.475459
v -0.525206 3.491504 0.520781
v -0.401915 3.657666 0.220272
v -0.355284 3.731667 0.475459
v -0.553282 3.775352 0.284553
v -0.525206 3.491504 0.520781
v -0.553282 3.775352 0.284553
v -0.355284 3.731667 0.475459
v -0.295958 4.139994 0.176129
v -0.295958 4.139994 0.176129
v -0.061583 4.094145 -0.034688
v -0.553282 3.775352 0.284553
v -0.355284 3.731667 0.475459
v -0.040098 3.972197 0.336611
v -0.295958 4.139994 0.176129
v -0.040098 3.972197 0.336611
v -0.355284 3.731667 0.475459
v -0.401915 3.657666 0.220272
v -0.401915 3.657666 0.220272
v 0.014345 4.035029 -0.038147
v -0.040098 3.972197 0.336611
v 0.014345 4.035029 -0.038147
v 0.376650 3.679896 0.335099
v -0.040098 3.972197 0.336611
v -0.040098 3.972197 0.336611
v 0.376650 3.679896 0.335099
v 0.242861 3.741301 0.561023
v 0.242861 3.741301 0.561023
v 0.247987 4.144876 0.255838
v -0.040098 3.972197 0.336611
v 0.247987 4.144876 0.255838
v 0.242861 3.741301 0.561023
v 0.487245 3.808367 0.445077
v 0.487245 3.808367 0.445077
v 0.085146 4.095429 -0.013347
v 0.247987 4.144876 0.255838
v 0.085146 4.095429 -0.013347
v 0.487245 3.808367 0.445077
v 0.376650 3.679896 0.335099
v 0.376650 3.679896 0.335099
v 0.014345 4.035029 -0.038147
v 0.085146 4.095429 -0.013347
v 0.630800 3.305840 0.612272
v 0.376650 3.679896 0.335099
v 0.487245 3.808367 0.445077
v 0.487245 3.808367 0.445077
v 0.695986 3.371510 0.676800
v 0.630800 3.305840 0.612272
v 0.695986 3.371510 0.676800
v 0.487245 3.808367 0.445077
v 0.410097 3.515598 0.658831
v 0.410097 3.515598 0.658831
v 0.487245 3.808367 0.445077
v 0.242861 3.741301 0.561023
v 0.242861 3.741301 0.561023
v 0.376650 3.679896 0.335099
v 0.410097 3.515598 0.658831
v 0.630800 3.305840 0.612272
v 0.410097 3.515598 0.658831
v 0.376650 3.679896 0.335099
v 0.267763 3.302256 0.863290
v 0.410097 3.515598 0.658831
v 0.630800 3.305840 0.612272
v 0.410097 3.515598 0.658831
v 0.267763 3.302256 0.863290
v 0.429872 3.418455 0.944443
v 0.695986 3.371510 0.676800
v 0.410097 3.515598 0.658831
v 0.429872 3.418455 0.944443
v 0.267763 3.302256 0.863290
v 0.695986 3.371510 0.676800
v 0.429872 3.418455 0.944443
v 0.267763 3.302256 0.863290
v 0.630800 3.305840 0.612272
v 0.695986 3.371510 0.676800
v 0.309023 4.543450 0.628072
v 0.309511 4.502112 0.825258
v 0.188905 4.528773 0.809153
v 0.309023 4.543450 0.628072
v 0.188905 4.528773 0.809153
v 0.236269 4.625728 0.661659
v 0.334657 4.621198 0.692206
v 0.236269 4.625728 0.661659
v 0.188905 4.528773 0.809153
v 0.188905 4.528773 0.809153
v 0.309511 4.502112 0.825258
v 0.334657 4.621198 0.692206
v 0.309023 4.543450 0.628072
v 0.334657 4.621198 0.692206
v 0.309511 4.502112 0.825258
v 0.334657 4.621198 0.692206
v 0.309023 4.543450 0.628072
v 0.344911 4.650835 0.428661
v 0.334657 4.621198 0.692206
v 0.344911 4.650835 0.428661
v 0.369081 4.740221 0.501155
v 0.369081 4.740221 0.501155
v 0.344911 4.650835 0.428661
v 0.197695 4.828497 0.416919
v 0.197695 4.828497 0.416919
v 0.148866 4.929334 0.524828
v 0.369081 4.740221 0.501155
v 0.369081 4.740221 0.501155
v 0.148866 4.929334 0.524828
v 0.281923 4.664385 0.520972
v 0.281923 4.664385 0.520972
v 0.148866 4.929334 0.524828
v 0.155946 4.767664 0.555566
v 0.155946 4.767664 0.555566
v 0.344911 4.650835 0.428661
v 0.281923 4.664385 0.520972
v 0.155946 4.767664 0.555566
v 0.197695 4.828497 0.416919
v 0.344911 4.650835 0.428661
v 0.309023 4.543450 0.628072
v 0.281923 4.664385 0.520972
v 0.344911 4.650835 0.428661
v 0.309023 4.543450 0.628072
v 0.236269 4.625728 0.661659
v 0.281923 4.664385 0.520972
v 0.281923 4.664385 0.520972
v 0.236269 4.625728 0.661659
v 0.369081 4.740221 0.501155
v 0.236269 4.625728 0.661659
v 0.334657 4.621198 0.692206
v 0.369081 4.740221 0.501155
v -0.062315 5.050848 0.423824
v -0.078429 5.265379 0.521353
v 0.072206 5.009786 0.569148
v 0.072206 5.009786 0.569148
v -0.078429 5.265379 0.521353
v 0.075136 5.232985 0.675066
v 0.075136 5.232985 0.675066
v 0.086366 5.052824 0.754183
v 0.072206 5.009786 0.569148
v 0.075136 5.232985 0.675066
v -0.123839 5.241760 0.831683
v 0.086366 5.052824 0.754183
v -0.127013 5.003394 0.867516
v 0.086366 5.052824 0.754183
v -0.123839 5.241760 0.831683
v -0.127013 5.003394 0.867516
v -0.113097 4.914647 0.777556
v 0.086366 5.052824 0.754183
v 0.086366 5.052824 0.754183
v -0.113097 4.914647 0.777556
v 0.072206 5.009786 0.569148
v 0.072206 5.009786 0.569148
v -0.113097 4.914647 0.777556
v -0.096251 4.937843 0.661660
v -0.232237 5.007119 0.524499
v -0.096251 4.937843 0.661660
v -0.113097 4.914647 0.777556
v -0.113097 4.914647 0.777556
v -0.299620 5.049565 0.697739
v -0.232237 5.007119 0.524499
v -0.127013 5.003394 0.867516
v -0.299620 5.049565 0.697739
v -0.113097 4.914647 0.777556
v -0.127013 5.003394 0.867516
v -0.123839 5.241760 0.831683
v -0.299620 5.049565 0.697739
v -0.242735 5.230262 0.628691
v -0.299620 5.049565 0.697739
v -0.123839 5.241760 0.831683
v -0.242735 5.230262 0.628691
v -0.232237 5.007119 0.524499
v -0.299620 5.049565 0.697739
v -0.242735 5.230262 0.628691
v -0.078429 5.265379 0.521353
v -0.232237 5.007119 0.524499
v -0.062315 5.050848 0.423824
v -0.232237 5.007119 0.524499
v -0.078429 5.265379 0.521353
v 0.148866 4.929334 0.524828
v -0.054014 4.975461 0.371669
v 0.072206 5.009786 0.569148
v -0.054014 4.975461 0.371669
v -0.062315 5.050848 0.423824
v 0.072206 5.009786 0.569148
v -0.054014 4.975461 0.371669
v -0.232237 5.007119 0.524499
v -0.062315 5.050848 0.423824
v -0.291319 4.925637 0.460280
v -0.232237 5.007119 0.524499
v -0.054014 4.975461 0.371669
v 0.201601 4.467130 0.373790
v -0.054014 4.975461 0.371669
v 0.197695 4.828497 0.416919
v 0.201601 4.467130 0.373790
v -0.014952 4.496636 0.134811
v -0.054014 4.975461 0.371669
v -0.290831 4.462840 0.301662
v -0.054014 4.975461 0.371669
v -0.014952 4.496636 0.134811
v -0.290831 4.462840 0.301662
v -0.305479 4.824152 0.343066
v -0.054014 4.975461 0.371669
v 0.155946 4.767664 0.555566
v 0.201601 4.467130 0.373790
v 0.197695 4.828497 0.416919
v -0.072569 4.380116 0.532671
v 0.201601 4.467130 0.373790
v 0.155946 4.767664 0.555566
v 0.201601 4.467130 0.373790
v -0.072569 4.380116 0.532671
v 0.247987 4.144876 0.255838
v 0.247987 4.144876 0.255838
v -0.072569 4.380116 0.532671
v -0.040098 3.972197 0.336611
v -0.295958 4.139994 0.176129
v -0.040098 3.972197 0.336611
v -0.072569 4.380116 0.532671
v -0.290831 4.462840 0.301662
v -0.295958 4.139994 0.176129
v -0.072569 4.380116 0.532671
v -0.072569 4.380116 0.532671
v -0.304503 4.763459 0.488133
v -0.290831 4.462840 0.301662
v -0.304503 4.763459 0.488133
v -0.305479 4.824152 0.343066
v -0.290831 4.462840 0.301662
v 0.201601 4.467130 0.373790
v 0.247987 4.144876 0.255838
v 0.085146 4.095429 -0.013347
v 0.008486 4.222500 -0.009723
v 0.201601 4.467130 0.373790
v 0.085146 4.095429 -0.013347
v 0.008486 4.222500 -0.009723
v -0.014952 4.496636 0.134811
v 0.201601 4.467130 0.373790
v 0.008486 4.222500 -0.009723
v -0.290831 4.462840 0.301662
v -0.014952 4.496636 0.134811
v 0.008486 4.222500 -0.009723
v -0.061583 4.094145 -0.034688
v -0.290831 4.462840 0.301662
v -0.290831 4.462840 0.301662
v -0.061583 4.094145 -0.034688
v -0.295958 4.139994 0.176129
v 0.014345 4.035029 -0.038147
v 0.098818 4.025005 -0.366344
v 0.192323 4.043570 -0.334167
v 0.192323 4.043570 -0.334167
v 0.085146 4.095429 -0.013347
v 0.014345 4.035029 -0.038147
v 0.085146 4.095429 -0.013347
v 0.192323 4.043570 -0.334167
v 0.137392 4.116410 -0.373784
v 0.137392 4.116410 -0.373784
v 0.008486 4.222500 -0.009723
v 0.085146 4.095429 -0.013347
v -0.061583 4.094145 -0.034688
v 0.008486 4.222500 -0.009723
v 0.137392 4.116410 -0.373784
v 0.137392 4.116410 -0.373784
v 0.098818 4.025005 -0.366344
v -0.061583 4.094145 -0.034688
v 0.014345 4.035029 -0.038147
v -0.061583 4.094145 -0.034688
v 0.098818 4.025005 -0.366344
v 0.098818 4.025005 -0.366344
v 0.137392 4.116410 -0.373784
v 0.341249 4.112349 -0.964822
v 0.341249 4.112349 -0.964822
v 0.137392 4.116410 -0.373784
v 0.192323 4.043570 -0.334167
v -0.412901 4.473199 0.456017
v -0.302305 4.385930 0.621884
v -0.423155 4.356895 0.620310
v -0.412901 4.473199 0.456017
v -0.342589 4.534117 0.523118
v -0.302305 4.385930 0.621884
v -0.412901 4.473199 0.456017
v -0.385557 4.636725 0.396442
v -0.342589 4.534117 0.523118
v -0.412901 4.473199 0.456017
v -0.439024 4.651488 0.314261
v -0.385557 4.636725 0.396442
v -0.385557 4.636725 0.396442
v -0.439024 4.651488 0.314261
v -0.304503 4.763459 0.488133
v -0.304503 4.763459 0.488133
v -0.439024 4.651488 0.314261
v -0.305479 4.824152 0.343066
v -0.291319 4.925637 0.460280
v -0.385557 4.636725 0.396442
v -0.304503 4.763459 0.488133
v -0.291319 4.925637 0.460280
v -0.467345 4.704975 0.415148
v -0.385557 4.636725 0.396442
v -0.305479 4.824152 0.343066
v -0.467345 4.704975 0.415148
v -0.291319 4.925637 0.460280
v -0.305479 4.824152 0.343066
v -0.439024 4.651488 0.314261
v -0.467345 4.704975 0.415148
v -0.441954 4.519306 0.544571
v -0.467345 4.704975 0.415148
v -0.439024 4.651488 0.314261
v -0.441954 4.519306 0.544571
v -0.439024 4.651488 0.314261
v -0.412901 4.473199 0.456017
v -0.412901 4.473199 0.456017
v -0.423155 4.356895 0.620310
v -0.441954 4.519306 0.544571
v -0.302305 4.385930 0.621884
v -0.441954 4.519306 0.544571
v -0.423155 4.356895 0.620310
v -0.441954 4.519306 0.544571
v -0.302305 4.385930 0.621884
v -0.342589 4.534117 0.523118
v -0.342589 4.534117 0.523118
v -0.467345 4.704975 0.415148
v -0.441954 4.519306 0.544571
v -0.342589 4.534117 0.523118
v -0.385557 4.636725 0.396442
v -0.467345 4.704975 0.415148
v -0.548887 4.887197 -0.145768
v -0.387511 4.972592 -0.767949
v -0.847716 4.922582 -0.652283
v -0.387511 4.972592 -0.767949
v -0.548887 4.887197 -0.145768
v -0.196593 4.902751 -0.224865
v 0.119325 4.756586 -0.321311
v -0.387511 4.972592 -0.767949
v -0.196593 4.902751 -0.224865
v 0.119325 4.756586 -0.321311
v -0.025938 4.755279 -0.990925
v -0.387511 4.972592 -0.767949
v -0.072569 4.380116 0.532671
v -0.087950 4.877334 0.608121
v -0.304503 4.763459 0.488133
v -0.072569 4.380116 0.532671
v 0.155946 4.767664 0.555566
v -0.087950 4.877334 0.608121
v 0.148866 4.929334 0.524828
v -0.087950 4.877334 0.608121
v 0.155946 4.767664 0.555566
v 0.148866 4.929334 0.524828
v 0.072206 5.009786 0.569148
v -0.087950 4.877334 0.608121
v -0.087950 4.877334 0.608121
v 0.072206 5.009786 0.569148
v -0.096251 4.937843 0.661660
v -0.087950 4.877334 0.608121
v -0.096251 4.937843 0.661660
v -0.232237 5.007119 0.524499
v -0.291319 4.925637 0.460280
v -0.087950 4.877334 0.608121
v -0.232237 5.007119 0.524499
v -0.291319 4.925637 0.460280
v -0.304503 4.763459 0.488133
v -0.087950 4.877334 0.608121
v -0.242735 5.230262 0.628691
v -0.100157 5.289401 0.668836
v -0.078429 5.265379 0.521353
v -0.242735 5.230262 0.628691
v -0.123839 5.241760 0.831683
v -0.100157 5.289401 0.668836
v 0.075136 5.232985 0.675066
v -0.100157 5.289401 0.668836
v -0.123839 5.241760 0.831683
v 0.075136 5.232985 0.675066
v -0.078429 5.265379 0.521353
v -0.100157 5.289401 0.668836
vn 0.1863 0.9449 0.2692
vn -0.0588 0.9898 -0.1295
vn -0.8454 -0.1661 -0.5077
vn -0.3769 -0.9238 0.0677
vn -0.4725 0.7051 0.5287
vn -0.0570 0.7411 0.6689
vn -0.4754 0.7233 0.5009
vn -0.5157 -0.8358 -0.1885
vn 0.0325 0.9810 -0.1915
vn 0.3095 0.9173 0.2506
vn -0.7998 -0.5268 -0.2878
vn -0.1863 -0.9449 -0.2692
vn 0.0588 -0.9898 0.1295
vn 0.8454 0.1661 0.5077
vn 0.3769 0.9238 -0.0677
vn 0.4725 -0.7051 -0.5287
vn 0.0570 -0.7411 -0.6689
vn 0.4754 -0.7233 -0.5009
vn 0.5157 0.8358 0.1885
vn -0.0325 -0.9810 0.1915
vn -0.3095 -0.9173 -0.2506
vn 0.7998 0.5268 0.2878
vn -0.5088 -0.7317 0.4536
vn 0.3695 -0.7241 0.5823
vn 0.2326 -0.9719 -0.0372
vn 0.0787 -0.9844 0.1571
vn 0.1595 -0.9794 -0.1236
vn -0.5085 -0.8400 0.1892
vn -0.3365 -0.9032 0.2667
vn -0.1286 -0.9837 -0.1259
vn 0.5088 0.7317 -0.4536
vn 0.2130 -0.9754 -0.0561
vn -0.3695 0.7241 -0.5823
vn -0.2326 0.9719 0.0372
vn -0.0787 0.9844 -0.1571
vn -0.1595 0.9794 0.1236
vn 0.5085 0.8400 -0.1892
vn 0.3365 0.9032 -0.2667
vn 0.1286 0.9837 0.1259
vn -0.1401 -0.3346 -0.9319
vn -0.1685 -0.3324 -0.9280
vn 0.1391 0.9808 0.1367
vn 0.3083 0.9412 -0.1382
vn 0.1685 0.3324 0.9280
vn 0.1401 0.3346 0.9319
vn 0.6293 0.5523 -0.5468
vn -0.5767 0.3275 -0.7484
vn -0.7222 0.6810 -0.1211
vn -0.7973 0.2869 0.5311
vn 0.3919 0.3665 0.8438
vn 0.5511 0.8341 0.0213
vn -0.3083 -0.9412 0.1382
vn -0.1391 -0.9808 -0.1367
vn 0.0140 -0.9911 -0.1324
vn 0.0786 -0.9902 -0.1155
vn -0.4652 -0.8793 0.1026
vn -0.4127 -0.9104 0.0280
vn -0.2826 -0.3099 -0.9078
vn -0.4755 -0.1369 -0.8690
vn -0.4493 -0.0926 -0.8885
vn -0.4458 -0.0940 -0.8902
vn -0.5187 0.5160 0.6817
vn -0.5585 0.8249 0.0875
vn -0.4047 -0.8371 0.3681
vn -0.4057 -0.8361 0.3692
vn 0.4556 0.7626 0.4593
vn 0.7742 -0.3326 -0.5385
vn 0.7979 -0.6028 -0.0060
vn 0.8178 -0.5753 0.0174
vn -0.5375 0.5074 0.6736
vn -0.5104 0.5554 0.6565
vn -0.6279 0.2212 -0.7462
vn -0.1063 0.5979 0.7945
vn 0.6325 -0.7671 0.1069
vn 0.6612 -0.7496 -0.0296
vn -0.5613 -0.7991 -0.2155
vn -0.5706 -0.8129 -0.1169
vn -0.1375 0.5985 0.7892
vn 0.2093 0.5881 0.7812
vn 0.8013 0.2693 -0.5342
vn 0.7342 -0.0526 -0.6769
vn 0.5300 -0.2949 -0.7951
vn 0.7195 -0.0253 -0.6940
vn 0.7169 -0.0270 -0.6967
vn 0.2194 0.5369 0.8146
vn 0.2402 0.5303 0.8131
vn -0.7219 -0.6443 -0.2524
vn -0.6928 -0.6694 -0.2682
vn -0.5232 -0.3813 -0.7621
vn -0.6486 0.7058 0.2850
vn 0.4205 0.8675 0.2659
vn 0.3397 -0.8090 0.4797
vn 0.3398 -0.8088 0.4799
vn -0.1858 -0.9618 -0.2012
vn -0.7335 -0.4356 -0.5218
vn -0.1217 0.8469 0.5176
vn 0.0729 0.7363 0.6728
vn 0.9615 -0.2686 -0.0587
vn 0.9493 -0.3143 0.0016
vn 0.9638 -0.2667 0.0075
vn 0.5656 0.4218 -0.7087
vn 0.5687 0.7135 -0.4094
vn 0.1644 0.0682 0.9840
vn 0.4004 0.1880 0.8968
vn -0.6500 -0.6776 -0.3441
vn -0.6693 -0.5849 -0.4582
vn -0.7317 -0.5364 -0.4205
vn -0.7631 -0.5158 -0.3894
vn -0.6572 0.7537 -0.0062
vn -0.1189 0.8522 0.5095
vn 0.7381 0.3244 -0.5916
vn 0.7062 0.2959 -0.6432
vn 0.9963 0.0260 -0.0823
vn 0.5877 0.3558 0.7267
vn 0.4420 0.1276 0.8879
vn 0.4819 -0.5854 0.6520
vn 0.5749 -0.8056 0.1434
vn 0.3226 -0.9360 -0.1405
vn -0.2524 -0.9411 -0.2250
vn -0.5787 -0.8151 -0.0254
vn -0.6390 -0.5947 0.4879
vn -0.6802 0.1178 0.7235
vn -0.7938 0.4185 0.4413
vn -0.9111 0.1384 -0.3883
vn -0.5648 0.3272 -0.7576
vn -0.5425 0.3136 -0.7794
vn 0.5080 0.7331 -0.4521
vn 0.7154 0.4491 -0.5353
vn -0.5390 0.4383 -0.7193
vn -0.3692 0.7255 -0.5808
vn 0.2418 0.1176 -0.9632
vn 0.7138 0.3564 -0.6028
vn -0.5163 0.3455 -0.7836
vn 0.0434 0.1155 -0.9924
vn 0.9600 -0.0229 0.2790
vn 0.5509 -0.3691 0.7485
vn 0.5404 -0.2195 0.8123
vn 0.4451 -0.3589 0.8204
vn -0.6554 -0.3689 0.6591
vn -0.7472 -0.2305 0.6234
vn -0.7364 -0.3805 0.5595
vn -0.9992 -0.0394 -0.0098
vn 0.7877 0.3086 -0.5332
vn 0.6720 0.4227 -0.6080
vn 0.7095 0.3752 -0.5966
vn -0.5141 0.3652 -0.7761
vn -0.4773 0.4116 -0.7764
vn -0.6059 0.2966 -0.7381
vn 0.1698 -0.9827 0.0737
vn 0.5520 -0.7742 0.3096
vn 0.7500 0.6451 0.1463
vn 0.8482 0.5073 0.1525
vn -0.7624 0.4968 -0.4147
vn -0.8283 0.3117 -0.4656
vn -0.6126 -0.7790 -0.1339
vn -0.8853 0.3486 -0.3078
vn 0.7080 0.6643 0.2396
vn 0.2008 -0.8054 -0.5576
vn 0.7622 -0.2026 -0.6148
vn 0.7848 -0.3238 -0.5285
vn 0.7630 -0.3300 -0.5557
vn 0.8216 -0.1228 -0.5566
vn 0.7865 -0.5678 -0.2429
vn -0.8379 0.1579 0.5225
vn 0.0339 -0.2262 0.9735
vn -0.6507 0.6112 -0.4506
vn -0.6477 0.5828 -0.4908
vn -0.9613 -0.2333 -0.1462
vn -0.9471 -0.2729 -0.1687
vn -0.9564 -0.2068 -0.2061
vn -0.1102 0.4096 0.9056
vn 0.0915 0.5694 0.8170
vn 0.0891 0.5777 0.8114
vn 0.6477 0.6844 0.3347
vn -0.0786 0.9902 0.1155
vn -0.0140 0.9911 0.1324
vn 0.4127 0.9104 -0.0280
vn 0.4652 0.8793 -0.1026
vn -0.4182 -0.1489 0.8961
vn 0.1462 -0.1440 0.9787
vn 0.2881 0.1910 0.9384
vn 0.3591 -0.1639 0.9188
vn 0.5711 -0.4986 0.6521
vn -0.7259 -0.5089 0.4626
vn -0.6057 -0.1729 0.7767
vn -0.5488 0.1846 0.8153
vn -0.3272 0.9238 -0.1987
vn -0.4225 0.8846 0.1974
vn 0.2817 0.9091 0.3069
vn 0.3080 0.9452 -0.1086
vt 0.517578 0.192383
vt 0.500488 0.318359
vt 0.592285 0.267578
vt 0.564941 0.104980
vt 0.636230 0.180176
vt 0.709473 0.122559
vt 0.693848 0.040039
vt 0.837891 0.362305
vt 0.972656 0.362793
vt 0.898926 0.221191
vt 0.454590 0.221191
vt 0.466309 0.100586
vt 0.568359 0.020020
vt 0.706543 0.248047
vt 0.620117 0.331543
vt 0.394043 0.689941
vt 0.306641 0.642090
vt 0.317383 0.691406
vt 0.471191 0.691406
vt 0.481934 0.642090
vt 0.432129 0.113770
vt 0.229980 0.069336
vt 0.379395 0.184082
vt 0.243652 0.181641
vt 0.402832 0.184570
vt 0.430176 0.255859
vt 0.226562 0.293457
vt 0.888672 0.775879
vt 0.911621 0.774902
vt 0.871582 0.964844
vt 0.861328 0.481934
vt 0.941406 0.486328
vt 0.962891 0.045898
vt 0.841309 0.022949
vt 0.848145 0.180176
vt 0.757324 0.088379
vt 0.931641 0.174316
vt 0.836914 0.021484
vt 0.060547 0.178711
vt 0.040527 0.033691
vt 0.036133 0.322754
vt 0.801758 0.937988
vt 0.824707 0.918945
vt 0.800781 0.835938
vt 0.744141 0.838379
vt 0.776855 0.673340
vt 0.737793 0.672363
vt 0.649414 0.754395
vt 0.638184 0.652344
vt 0.620117 0.586426
vt 0.745605 0.637207
vt 0.565430 0.634766
vt 0.555664 0.730469
vt 0.553223 0.860840
vt 0.649414 0.857422
vt 0.733887 0.981934
vt 0.638672 0.976562
vt 0.515625 0.961914
vt 0.724121 0.411621
vt 0.794434 0.424316
vt 0.790039 0.465820
vt 0.721191 0.463379
vt 0.722656 0.500488
vt 0.791504 0.505859
vt 0.728516 0.541992
vt 0.641602 0.554199
vt 0.634766 0.505371
vt 0.562988 0.558594
vt 0.538574 0.510254
vt 0.633789 0.459961
vt 0.551270 0.458984
vt 0.637207 0.404297
vt 0.560059 0.393066
vt 0.478027 0.802246
vt 0.479492 0.944824
vt 0.402832 0.795898
vt 0.415039 0.976562
vt 0.338867 0.877441
vt 0.267090 0.990723
vt 0.267090 0.874023
vt 0.267090 0.819336
vt 0.267090 0.766602
vt 0.131348 0.796387
vt 0.189941 0.877441
vt 0.129883 0.977051
vt 0.054688 0.945801
vt 0.055664 0.803223
vt 0.341309 0.725586
vt 0.394043 0.723145
vt 0.447266 0.725586
vt 0.308594 0.515137
vt 0.394043 0.472656
vt 0.479980 0.515137
vt 0.227051 0.643555
vt 0.246582 0.517090
vt 0.280762 0.643555
vt 0.148926 0.469238
vt 0.244141 0.392090
vt 0.151855 0.353027
vt 0.058105 0.388672
vt 0.051758 0.501465
vt 0.066895 0.641113
vt 0.013184 0.639160
vt 0.299316 0.390625
vt 0.368652 0.341797
vt 0.394043 0.386230
vt 0.419922 0.341797
vt 0.488770 0.390625
vt 0.908203 0.667969
vt 0.887695 0.644043
vt 0.866211 0.776367
vt 0.861816 0.610840
vt 0.837891 0.647461
vt 0.841797 0.764648
vt 0.811035 0.681152
vt 0.146484 0.690918
vt 0.222168 0.694336
vt 0.197754 0.728027
vt 0.145996 0.718262
vt 0.093750 0.726074
vt 0.070312 0.691895
vt 0.156250 0.993164
vt 0.092773 0.864746
vt 0.158691 0.747559
vt 0.027344 0.992676
vt 0.028809 0.747559
s 0
usemtl Puss
f 1/1/1 2/2/1 3/3/1
f 4/4/2 5/5/2 6/6/2
f 7/4/3 8/6/3 9/7/3
f 10/8/4 11/9/4 12/10/4
f 13/11/5 14/1/5 15/12/5
f 16/1/6 17/11/6 18/2/6
f 19/12/7 20/1/7 21/4/7
f 22/7/8 23/13/8 24/12/8
f 25/5/9 26/14/9 27/6/9
f 28/2/10 29/15/10 30/3/10
f 31/7/11 32/12/11 33/4/11
f 34/1/12 35/3/12 36/2/12
f 37/4/13 38/6/13 39/5/13
f 40/4/14 41/7/14 42/6/14
f 43/8/15 44/10/15 45/9/15
f 46/11/16 47/12/16 48/1/16
f 49/1/17 50/2/17 51/11/17
f 52/12/18 53/4/18 54/1/18
f 55/7/19 56/12/19 57/13/19
f 58/5/20 59/6/20 60/14/20
f 61/2/21 62/3/21 63/15/21
f 64/7/22 65/4/22 66/12/22
f 67/16/23 68/17/23 69/18/23
f 70/16/24 71/19/24 72/20/24
f 73/21/25 74/22/25 75/23/25
f 76/23/26 77/22/26 78/24/26
f 79/23/27 80/25/27 81/21/27
f 82/26/28 83/23/28 84/27/28
f 85/23/29 86/24/29 87/27/29
f 88/23/30 89/26/30 90/25/30
f 91/16/31 92/18/31 93/17/31
f 94/28/32 95/29/32 96/30/32
f 97/16/33 98/20/33 99/19/33
f 100/29/32 101/30/32 102/28/32
f 103/21/34 104/23/34 105/22/34
f 106/23/35 107/24/35 108/22/35
f 109/23/36 110/21/36 111/25/36
f 112/26/37 113/27/37 114/23/37
f 115/23/38 116/27/38 117/24/38
f 118/23/39 119/25/39 120/26/39
f 121/9/40 122/31/40 123/32/40
f 124/9/41 125/8/41 126/31/41
f 127/5/42 128/15/42 129/14/42
f 130/5/43 131/3/43 132/15/43
f 133/9/44 134/31/44 135/8/44
f 136/9/45 137/32/45 138/31/45
f 139/33/46 140/34/46 141/35/46
f 142/34/47 143/36/47 144/35/47
f 145/35/48 146/36/48 147/37/48
f 148/36/49 149/38/49 150/37/49
f 151/37/50 152/38/50 153/33/50
f 154/33/51 155/35/51 156/37/51
f 157/5/52 158/15/52 159/3/52
f 160/5/53 161/14/53 162/15/53
f 163/22/54 164/39/54 165/24/54
f 166/22/55 167/40/55 168/39/55
f 169/39/56 170/41/56 171/27/56
f 172/27/57 173/24/57 174/39/57
f 175/42/58 176/43/58 177/44/58
f 178/44/59 179/45/59 180/42/59
f 181/46/60 182/45/60 183/44/60
f 184/45/61 185/46/61 186/47/61
f 187/47/62 188/48/62 189/45/62
f 190/47/63 191/49/63 192/48/63
f 193/50/64 194/49/64 195/47/64
f 196/50/65 197/47/65 198/51/65
f 199/48/66 200/49/66 201/52/66
f 202/52/67 203/53/67 204/48/67
f 205/48/68 206/53/68 207/54/68
f 208/55/69 209/48/69 210/54/69
f 211/55/70 212/45/70 213/48/70
f 214/45/71 215/55/71 216/56/71
f 217/56/72 218/42/72 219/45/72
f 220/55/73 221/57/73 222/56/73
f 223/57/74 224/55/74 225/54/74
f 226/54/75 227/58/75 228/57/75
f 229/58/76 230/54/76 231/57/76
f 232/57/77 233/54/77 234/55/77
f 235/55/78 236/56/78 237/57/78
f 238/56/79 239/55/79 240/45/79
f 241/45/80 242/42/80 243/56/80
f 244/42/81 245/45/81 246/44/81
f 247/44/82 248/43/82 249/42/82
f 250/46/83 251/44/83 252/45/83
f 253/45/84 254/47/84 255/46/84
f 256/47/85 257/45/85 258/48/85
f 259/48/86 260/45/86 261/55/86
f 262/55/87 263/54/87 264/48/87
f 265/53/88 266/48/88 267/54/88
f 268/52/89 269/48/89 270/53/89
f 271/48/90 272/52/90 273/49/90
f 274/47/91 275/48/91 276/49/91
f 277/50/92 278/47/92 279/49/92
f 280/50/93 281/51/93 282/47/93
f 283/59/94 284/60/94 285/61/94
f 286/59/95 287/61/95 288/62/95
f 289/63/96 290/62/96 291/61/96
f 292/61/97 293/64/97 294/63/97
f 295/65/98 296/63/98 297/64/98
f 298/63/99 299/65/99 300/66/99
f 301/63/100 302/66/100 303/67/100
f 304/67/101 305/66/101 306/68/101
f 307/68/102 308/69/102 309/67/102
f 310/67/103 311/69/103 312/70/103
f 313/70/104 314/69/104 315/71/104
f 316/71/105 317/72/105 318/70/105
f 319/71/106 320/73/106 321/72/106
f 322/59/107 323/70/107 324/72/107
f 325/59/108 326/62/108 327/70/108
f 328/70/109 329/62/109 330/67/109
f 331/62/110 332/63/110 333/67/110
f 334/74/111 335/75/111 336/76/111
f 337/76/112 338/75/112 339/77/112
f 340/77/113 341/78/113 342/76/113
f 343/77/114 344/79/114 345/78/114
f 346/80/115 347/78/115 348/79/115
f 349/80/116 350/81/116 351/78/116
f 352/78/117 353/81/117 354/76/117
f 355/76/118 356/81/118 357/82/118
f 358/83/119 359/82/119 360/81/119
f 361/81/120 362/84/120 363/83/120
f 364/80/121 365/84/121 366/81/121
f 367/80/122 368/79/122 369/84/122
f 370/85/123 371/84/123 372/79/123
f 373/85/124 374/83/124 375/84/124
f 376/85/125 377/86/125 378/83/125
f 379/87/126 380/83/126 381/86/126
f 382/18/127 383/16/127 384/88/127
f 385/16/128 386/89/128 387/88/128
f 388/16/129 389/90/129 390/89/129
f 391/19/130 392/90/130 393/16/130
f 394/91/131 395/16/131 396/17/131
f 397/91/132 398/92/132 399/16/132
f 400/93/133 401/16/133 402/92/133
f 403/93/134 404/20/134 405/16/134
f 406/94/135 407/95/135 408/96/135
f 409/97/136 410/95/136 411/94/136
f 412/95/137 413/97/137 414/98/137
f 415/98/138 416/97/138 417/99/138
f 418/100/139 419/99/139 420/97/139
f 421/101/140 422/100/140 423/97/140
f 424/97/141 425/102/141 426/101/141
f 427/102/142 428/103/142 429/101/142
f 430/91/143 431/104/143 432/105/143
f 433/106/144 434/91/144 435/105/144
f 436/106/145 437/92/145 438/91/145
f 439/106/146 440/93/146 441/92/146
f 442/106/147 443/107/147 444/93/147
f 445/93/148 446/107/148 447/108/148
f 448/109/149 449/29/149 450/28/149
f 451/28/150 452/110/150 453/109/150
f 454/110/151 455/28/151 456/111/151
f 457/111/152 458/112/152 459/110/152
f 460/113/153 461/112/153 462/111/153
f 463/111/154 464/114/154 465/113/154
f 466/115/155 467/113/155 468/114/155
f 469/114/156 470/111/156 471/30/156
f 472/30/157 473/111/157 474/28/157
f 475/59/158 476/61/158 477/60/158
f 478/59/159 479/62/159 480/61/159
f 481/59/160 482/70/160 483/62/160
f 484/59/161 485/72/161 486/70/161
f 487/70/162 488/72/162 489/71/162
f 490/71/163 491/72/163 492/73/163
f 493/69/164 494/70/164 495/71/164
f 496/69/165 497/67/165 498/70/165
f 499/68/166 500/67/166 501/69/166
f 502/68/167 503/66/167 504/67/167
f 505/63/168 506/67/168 507/66/168
f 508/63/169 509/66/169 510/65/169
f 511/65/170 512/64/170 513/63/170
f 514/61/171 515/63/171 516/64/171
f 517/63/172 518/61/172 519/62/172
f 520/62/173 521/67/173 522/63/173
f 523/62/174 524/70/174 525/67/174
f 526/22/175 527/39/175 528/40/175
f 529/39/176 530/22/176 531/24/176
f 532/27/177 533/39/177 534/24/177
f 535/27/178 536/41/178 537/39/178
f 538/97/179 539/116/179 540/102/179
f 541/97/180 542/94/180 543/116/180
f 544/117/181 545/116/181 546/94/181
f 547/117/182 548/118/182 549/116/182
f 550/116/183 551/118/183 552/119/183
f 553/116/184 554/119/184 555/120/184
f 556/121/185 557/116/185 558/120/185
f 559/121/186 560/102/186 561/116/186
f 562/122/187 563/123/187 564/124/187
f 565/122/188 566/125/188 567/123/188
f 568/126/189 569/123/189 570/125/189
f 571/126/190 572/124/190 573/123/190
o Bull
v 0.215761 0.665618 -3.794051
v -0.292784 0.799280 -3.785392
v -0.071837 0.646398 -4.396546
v 0.215761 0.665618 -3.794051
v 0.006288 1.175995 -3.659441
v -0.292784 0.799280 -3.785392
v 0.215761 0.665618 -3.794051
v 0.144716 1.139649 -3.661709
v 0.006288 1.175995 -3.659441
v 0.144716 1.139649 -3.661709
v 0.151552 1.845209 -3.224361
v 0.006288 1.175995 -3.659441
v 0.144716 1.139649 -3.661709
v 0.361269 1.790307 -3.227819
v 0.151552 1.845209 -3.224361
v 0.151552 1.845209 -3.224361
v 0.361269 1.790307 -3.227819
v 0.279482 2.163944 -2.724260
v 0.279482 2.163944 -2.724260
v 0.361269 1.790307 -3.227819
v 0.562196 2.166257 -2.683019
v -0.919493 2.677289 1.884051
v -1.435362 2.728723 2.210895
v -1.005919 2.329664 1.868247
v -0.919493 2.677289 1.884051
v -1.319395 2.854504 2.141119
v -1.435362 2.728723 2.210895
v -1.319395 2.854504 2.141119
v -1.046446 2.792174 2.770389
v -1.435362 2.728723 2.210895
v -1.532774 2.876079 2.494052
v -1.046446 2.792174 2.770389
v -1.319395 2.854504 2.141119
v -1.435362 2.728723 2.210895
v -1.046446 2.792174 2.770389
v -1.532774 2.876079 2.494052
v -1.574034 2.772882 1.766793
v -1.435362 2.728723 2.210895
v -1.532774 2.876079 2.494052
v -1.005919 2.329664 1.868247
v -1.435362 2.728723 2.210895
v -1.574034 2.772882 1.766793
v -1.005919 2.329664 1.868247
v -1.574034 2.772882 1.766793
v -0.966612 2.469505 1.478919
v -0.966612 2.469505 1.478919
v -1.574034 2.772882 1.766793
v -0.919493 2.677289 1.884051
v -0.919493 2.677289 1.884051
v -1.574034 2.772882 1.766793
v -1.319395 2.854504 2.141119
v -1.574034 2.772882 1.766793
v -1.532774 2.876079 2.494052
v -1.319395 2.854504 2.141119
v -0.616270 0.670173 -1.764745
v 0.548280 1.550243 -2.470526
v -0.350157 2.050838 -1.663107
v -0.616270 0.670173 -1.764745
v -0.148985 1.088888 -2.022027
v 0.548280 1.550243 -2.470526
v -0.616270 0.670173 -1.764745
v -0.029600 0.995417 -2.816449
v -0.148985 1.088888 -2.022027
v -0.616270 0.670173 -1.764745
v -0.383360 0.907346 -2.479384
v -0.029600 0.995417 -2.816449
v -0.029600 0.995417 -2.816449
v -0.383360 0.907346 -2.479384
v -0.427061 -0.160598 -2.670374
v -0.383360 0.907346 -2.479384
v -0.793272 0.014891 -1.904297
v -0.427061 -0.160598 -2.670374
v -0.427061 -0.160598 -2.670374
v -0.898253 -0.012579 -2.786960
v -0.029600 0.995417 -2.816449
v -0.029600 0.995417 -2.816449
v -0.898253 -0.012579 -2.786960
v -0.439513 1.306931 -2.867659
v -0.029600 0.995417 -2.816449
v -0.439513 1.306931 -2.867659
v -0.148985 1.088888 -2.022027
v -0.148985 1.088888 -2.022027
v -0.439513 1.306931 -2.867659
v -0.671934 1.186263 -2.338668
v -0.671934 1.186263 -2.338668
v 0.548280 1.550243 -2.470526
v -0.148985 1.088888 -2.022027
v -0.671934 1.186263 -2.338668
v -0.453429 1.746688 -2.593668
v 0.548280 1.550243 -2.470526
v -0.453429 1.746688 -2.593668
v -0.671934 1.186263 -2.338668
v -0.616270 0.670173 -1.764745
v -0.616270 0.670173 -1.764745
v -0.350157 2.050838 -1.663107
v -0.453429 1.746688 -2.593668
v -0.671934 1.186263 -2.338668
v -0.383360 0.907346 -2.479384
v -0.616270 0.670173 -1.764745
v -0.439513 1.306931 -2.867659
v -0.383360 0.907346 -2.479384
v -0.671934 1.186263 -2.338668
v -0.439513 1.306931 -2.867659
v -0.793272 0.014891 -1.904297
v -0.383360 0.907346 -2.479384
v -0.898253 -0.012579 -2.786960
v -0.793272 0.014891 -1.904297
v -0.439513 1.306931 -2.867659
v -0.427061 -0.160598 -2.670374
v -0.793272 0.014891 -1.904297
v -0.898253 -0.012579 -2.786960
v -1.210020 2.072729 -0.331245
v -1.188048 1.006959 0.624695
v -0.956114 1.914416 0.484766
v -1.210020 2.072729 -0.331245
v -1.224669 1.082807 0.110053
v -1.188048 1.006959 0.624695
v -1.224669 1.082807 0.110053
v -1.210020 2.072729 -0.331245
v -0.663634 1.658610 -0.584966
v -0.663634 1.658610 -0.584966
v -0.888975 0.988118 0.139640
v -1.224669 1.082807 0.110053
v -0.888975 0.988118 0.139640
v -0.663634 1.658610 -0.584966
v -0.956114 1.914416 0.484766
v -0.956114 1.914416 0.484766
v -1.188048 1.006959 0.624695
v -0.888975 0.988118 0.139640
v -1.188048 1.006959 0.624695
v -0.686827 -0.008313 -0.206754
v -0.888975 0.988118 0.139640
v -1.188048 1.006959 0.624695
v -1.244932 0.080034 0.516431
v -0.686827 -0.008313 -0.206754
v -0.888975 0.988118 0.139640
v -0.686827 -0.008313 -0.206754
v -1.356993 0.101317 -0.380778
v -0.888975 0.988118 0.139640
v -1.356993 0.101317 -0.380778
v -1.224669 1.082807 0.110053
v -1.224669 1.082807 0.110053
v -1.356993 0.101317 -0.380778
v -1.244932 0.080034 0.516431
v -0.686827 -0.008313 -0.206754
v -1.244932 0.080034 0.516431
v -1.356993 0.101317 -0.380778
v -1.224669 1.082807 0.110053
v -1.244932 0.080034 0.516431
v -1.188048 1.006959 0.624695
v 1.194277 0.721122 -1.917267
v 0.862734 2.061095 -1.485431
v 0.548280 1.550243 -2.470526
v 0.548280 1.550243 -2.470526
v 0.923280 1.122749 -2.344574
v 1.194277 0.721122 -1.917267
v 1.492861 1.343133 -2.440205
v 0.923280 1.122749 -2.344574
v 0.548280 1.550243 -2.470526
v 0.548280 1.550243 -2.470526
v 1.278993 1.954957 -2.521808
v 1.492861 1.343133 -2.440205
v 1.278993 1.954957 -2.521808
v 1.194277 0.721122 -1.917267
v 1.492861 1.343133 -2.440205
v 1.278993 1.954957 -2.521808
v 0.862734 2.061095 -1.485431
v 1.194277 0.721122 -1.917267
v 1.194277 0.721122 -1.917267
v 1.289736 0.888267 -2.681783
v 1.492861 1.343133 -2.440205
v 1.492861 1.343133 -2.440205
v 1.289736 0.888267 -2.681783
v 1.529970 1.286954 -3.020318
v 1.529970 1.286954 -3.020318
v 1.289736 0.888267 -2.681783
v 1.391298 -0.120362 -2.163806
v 1.391298 -0.120362 -2.163806
v 1.789980 -0.049595 -2.954712
v 1.529970 1.286954 -3.020318
v 1.295595 -0.141216 -3.025820
v 1.789980 -0.049595 -2.954712
v 1.391298 -0.120362 -2.163806
v 0.923280 1.122749 -2.344574
v 1.492861 1.343133 -2.440205
v 1.529970 1.286954 -3.020318
v 1.529970 1.286954 -3.020318
v 1.096376 1.024650 -3.123058
v 0.923280 1.122749 -2.344574
v 1.096376 1.024650 -3.123058
v 1.529970 1.286954 -3.020318
v 1.789980 -0.049595 -2.954712
v 1.789980 -0.049595 -2.954712
v 1.295595 -0.141216 -3.025820
v 1.096376 1.024650 -3.123058
v 1.096376 1.024650 -3.123058
v 1.295595 -0.141216 -3.025820
v 1.289736 0.888267 -2.681783
v 1.289736 0.888267 -2.681783
v 1.295595 -0.141216 -3.025820
v 1.391298 -0.120362 -2.163806
v 1.289736 0.888267 -2.681783
v 1.194277 0.721122 -1.917267
v 1.096376 1.024650 -3.123058
v 1.194277 0.721122 -1.917267
v 0.923280 1.122749 -2.344574
v 1.096376 1.024650 -3.123058
v 1.302919 2.094331 0.037302
v 0.799013 1.858316 0.755704
v 1.133241 0.909783 0.838420
v 1.133241 0.909783 0.838420
v 1.277529 1.166887 0.408334
v 1.302919 2.094331 0.037302
v 1.277529 1.166887 0.408334
v 1.133241 0.909783 0.838420
v 1.351747 0.087794 0.449367
v 1.277529 1.166887 0.408334
v 1.351747 0.087794 0.449367
v 1.666689 0.436080 -0.324034
v 0.998232 0.233170 -0.385187
v 1.666689 0.436080 -0.324034
v 1.351747 0.087794 0.449367
v 1.277529 1.166887 0.408334
v 0.903993 1.500381 -0.273212
v 1.302919 2.094331 0.037302
v 0.903993 1.500381 -0.273212
v 1.277529 1.166887 0.408334
v 0.962343 1.049105 0.312586
v 0.962343 1.049105 0.312586
v 1.277529 1.166887 0.408334
v 1.666689 0.436080 -0.324034
v 0.962343 1.049105 0.312586
v 1.666689 0.436080 -0.324034
v 0.998232 0.233170 -0.385187
v 1.133241 0.909783 0.838420
v 0.962343 1.049105 0.312586
v 0.998232 0.233170 -0.385187
v 1.133241 0.909783 0.838420
v 0.998232 0.233170 -0.385187
v 1.351747 0.087794 0.449367
v 0.962343 1.049105 0.312586
v 1.133241 0.909783 0.838420
v 0.799013 1.858316 0.755704
v 0.799013 1.858316 0.755704
v 0.903993 1.500381 -0.273212
v 0.962343 1.049105 0.312586
v -0.380430 1.068245 2.814062
v -0.033018 1.746041 3.167059
v -0.826231 1.739128 3.050522
v -0.380430 1.068245 2.814062
v 0.154726 1.755893 2.497460
v -0.033018 1.746041 3.167059
v -0.033018 1.746041 3.167059
v 0.154726 1.755893 2.497460
v -0.340636 2.022416 2.566486
v -0.826231 1.739128 3.050522
v -0.033018 1.746041 3.167059
v -0.340636 2.022416 2.566486
v 0.421327 2.652561 -2.735548
v 0.562196 2.166257 -2.683019
v 0.361269 1.790307 -3.227819
v 0.361269 1.790307 -3.227819
v 0.293153 1.969280 -3.407874
v 0.421327 2.652561 -2.735548
v 0.144716 1.139649 -3.661709
v 0.293153 1.969280 -3.407874
v 0.361269 1.790307 -3.227819
v 0.144716 1.139649 -3.661709
v 0.094667 1.239840 -3.797875
v 0.293153 1.969280 -3.407874
v 0.094667 1.239840 -3.797875
v 0.144716 1.139649 -3.661709
v 0.215761 0.665618 -3.794051
v 0.094667 1.239840 -3.797875
v 0.215761 0.665618 -3.794051
v -0.071837 0.646398 -4.396546
v 0.094667 1.239840 -3.797875
v -0.071837 0.646398 -4.396546
v -0.292784 0.799280 -3.785392
v 0.094667 1.239840 -3.797875
v -0.292784 0.799280 -3.785392
v 0.006288 1.175995 -3.659441
v 0.006288 1.175995 -3.659441
v 0.293153 1.969280 -3.407874
v 0.094667 1.239840 -3.797875
v 0.006288 1.175995 -3.659441
v 0.151552 1.845209 -3.224361
v 0.293153 1.969280 -3.407874
v 0.293153 1.969280 -3.407874
v 0.151552 1.845209 -3.224361
v 0.421327 2.652561 -2.735548
v 0.421327 2.652561 -2.735548
v 0.151552 1.845209 -3.224361
v 0.279482 2.163944 -2.724260
v 0.376650 2.688507 2.074201
v 0.470155 2.342532 2.084632
v 0.775820 2.747700 2.535034
v 0.376650 2.688507 2.074201
v 0.775820 2.747700 2.535034
v 0.682802 2.871830 2.434808
v 0.682802 2.871830 2.434808
v 0.775820 2.747700 2.535034
v 0.241152 2.803179 2.959337
v 0.785097 2.896086 2.833876
v 0.682802 2.871830 2.434808
v 0.241152 2.803179 2.959337
v 0.775820 2.747700 2.535034
v 0.785097 2.896086 2.833876
v 0.241152 2.803179 2.959337
v 1.035829 2.795259 2.149582
v 0.785097 2.896086 2.833876
v 0.775820 2.747700 2.535034
v 0.785097 2.896086 2.833876
v 1.035829 2.795259 2.149582
v 0.682802 2.871830 2.434808
v 0.682802 2.871830 2.434808
v 1.035829 2.795259 2.149582
v 0.376650 2.688507 2.074201
v 0.542177 2.482457 1.699999
v 0.376650 2.688507 2.074201
v 1.035829 2.795259 2.149582
v 0.470155 2.342532 2.084632
v 0.542177 2.482457 1.699999
v 1.035829 2.795259 2.149582
v 0.470155 2.342532 2.084632
v 1.035829 2.795259 2.149582
v 0.775820 2.747700 2.535034
v 0.470155 2.342532 2.084632
v -0.340636 2.022416 2.566486
v 0.154726 1.755893 2.497460
v 0.376650 2.688507 2.074201
v -0.340636 2.022416 2.566486
v 0.470155 2.342532 2.084632
v 0.376650 2.688507 2.074201
v -0.919493 2.677289 1.884051
v -0.340636 2.022416 2.566486
v -0.919493 2.677289 1.884051
v -1.005919 2.329664 1.868247
v -0.340636 2.022416 2.566486
v -1.005919 2.329664 1.868247
v -0.813048 1.747738 2.355608
v -0.340636 2.022416 2.566486
v -0.826231 1.739128 3.050522
v -0.340636 2.022416 2.566486
v -0.813048 1.747738 2.355608
v -0.380430 1.068245 2.814062
v -0.826231 1.739128 3.050522
v -0.813048 1.747738 2.355608
v -0.813048 1.747738 2.355608
v -0.180479 1.171083 1.450042
v -0.380430 1.068245 2.814062
v 0.154726 1.755893 2.497460
v -0.380430 1.068245 2.814062
v -0.180479 1.171083 1.450042
v 0.477480 2.100867 1.443765
v 0.154726 1.755893 2.497460
v -0.180479 1.171083 1.450042
v 0.470155 2.342532 2.084632
v 0.154726 1.755893 2.497460
v 0.477480 2.100867 1.443765
v 0.477480 2.100867 1.443765
v 0.542177 2.482457 1.699999
v 0.470155 2.342532 2.084632
v 0.477480 2.100867 1.443765
v -0.224913 2.944336 1.649546
v 0.542177 2.482457 1.699999
v 0.376650 2.688507 2.074201
v 0.542177 2.482457 1.699999
v -0.224913 2.944336 1.649546
v 0.376650 2.688507 2.074201
v -0.224913 2.944336 1.649546
v -0.919493 2.677289 1.884051
v -0.919493 2.677289 1.884051
v -0.224913 2.944336 1.649546
v -0.966612 2.469505 1.478919
v -0.824522 2.089763 1.252851
v -0.966612 2.469505 1.478919
v -0.224913 2.944336 1.649546
v -0.824522 2.089763 1.252851
v -1.005919 2.329664 1.868247
v -0.966612 2.469505 1.478919
v -1.005919 2.329664 1.868247
v -0.824522 2.089763 1.252851
v -0.813048 1.747738 2.355608
v -0.824522 2.089763 1.252851
v -0.180479 1.171083 1.450042
v -0.813048 1.747738 2.355608
v -0.180479 1.171083 1.450042
v -0.824522 2.089763 1.252851
v -0.956114 1.914416 0.484766
v -0.956114 1.914416 0.484766
v -0.824522 2.089763 1.252851
v -1.210020 2.072729 -0.331245
v -0.661680 3.408131 -0.074369
v -1.210020 2.072729 -0.331245
v -0.824522 2.089763 1.252851
v -0.824522 2.089763 1.252851
v -0.224913 2.944336 1.649546
v -0.661680 3.408131 -0.074369
v -0.087462 3.906658 0.658051
v -0.661680 3.408131 -0.074369
v -0.224913 2.944336 1.649546
v -0.224913 2.944336 1.649546
v 0.681581 3.419531 0.122442
v -0.087462 3.906658 0.658051
v 0.681581 3.419531 0.122442
v -0.224913 2.944336 1.649546
v 0.477480 2.100867 1.443765
v 0.477480 2.100867 1.443765
v 1.302919 2.094331 0.037302
v 0.681581 3.419531 0.122442
v 1.302919 2.094331 0.037302
v 0.477480 2.100867 1.443765
v 0.799013 1.858316 0.755704
v 0.799013 1.858316 0.755704
v 0.477480 2.100867 1.443765
v -0.180479 1.171083 1.450042
v -0.180479 1.171083 1.450042
v -0.010557 0.614782 0.326696
v 0.799013 1.858316 0.755704
v -0.956114 1.914416 0.484766
v -0.010557 0.614782 0.326696
v -0.180479 1.171083 1.450042
v -0.663634 1.658610 -0.584966
v -0.010557 0.614782 0.326696
v -0.956114 1.914416 0.484766
v -0.663634 1.658610 -0.584966
v -0.350157 2.050838 -1.663107
v -0.010557 0.614782 0.326696
v -0.663634 1.658610 -0.584966
v -1.210020 2.072729 -0.331245
v -0.350157 2.050838 -1.663107
v 0.277040 2.935916 -1.766862
v -0.350157 2.050838 -1.663107
v -1.210020 2.072729 -0.331245
v -0.350157 2.050838 -1.663107
v 0.277040 2.935916 -1.766862
v -0.453429 1.746688 -2.593668
v -0.453429 1.746688 -2.593668
v 0.277040 2.935916 -1.766862
v 0.421327 2.652561 -2.735548
v 0.421327 2.652561 -2.735548
v 0.279482 2.163944 -2.724260
v -0.453429 1.746688 -2.593668
v -0.453429 1.746688 -2.593668
v 0.279482 2.163944 -2.724260
v 0.548280 1.550243 -2.470526
v 0.548280 1.550243 -2.470526
v 0.279482 2.163944 -2.724260
v 0.562196 2.166257 -2.683019
v 0.562196 2.166257 -2.683019
v 1.278993 1.954957 -2.521808
v 0.548280 1.550243 -2.470526
v 1.278993 1.954957 -2.521808
v 0.562196 2.166257 -2.683019
v 0.421327 2.652561 -2.735548
v 0.277040 2.935916 -1.766862
v 1.278993 1.954957 -2.521808
v 0.421327 2.652561 -2.735548
v 0.862734 2.061095 -1.485431
v 1.278993 1.954957 -2.521808
v 0.277040 2.935916 -1.766862
v 0.277040 2.935916 -1.766862
v 1.302919 2.094331 0.037302
v 0.862734 2.061095 -1.485431
v 0.277040 2.935916 -1.766862
v 0.681581 3.419531 0.122442
v 1.302919 2.094331 0.037302
v 0.048525 4.013508 -0.274079
v 0.681581 3.419531 0.122442
v 0.277040 2.935916 -1.766862
v 0.681581 3.419531 0.122442
v 0.048525 4.013508 -0.274079
v -0.087462 3.906658 0.658051
v -0.661680 3.408131 -0.074369
v -0.087462 3.906658 0.658051
v 0.048525 4.013508 -0.274079
v 0.048525 4.013508 -0.274079
v 0.277040 2.935916 -1.766862
v -0.661680 3.408131 -0.074369
v -1.210020 2.072729 -0.331245
v -0.661680 3.408131 -0.074369
v 0.277040 2.935916 -1.766862
v 0.862734 2.061095 -1.485431
v 1.302919 2.094331 0.037302
v 0.903993 1.500381 -0.273212
v 0.903993 1.500381 -0.273212
v -0.010557 0.614782 0.326696
v 0.862734 2.061095 -1.485431
v 0.903993 1.500381 -0.273212
v 0.799013 1.858316 0.755704
v -0.010557 0.614782 0.326696
v -0.010557 0.614782 0.326696
v 0.232851 1.299792 -1.370034
v 0.862734 2.061095 -1.485431
v 0.862734 2.061095 -1.485431
v 0.232851 1.299792 -1.370034
v 0.548280 1.550243 -2.470526
v 0.548280 1.550243 -2.470526
v 0.232851 1.299792 -1.370034
v -0.350157 2.050838 -1.663107
v 0.232851 1.299792 -1.370034
v -0.010557 0.614782 0.326696
v -0.350157 2.050838 -1.663107
vn -0.2490 -0.9569 0.1494
vn -0.0562 -0.2761 0.9595
vn -0.0568 -0.2764 0.9594
vn -0.1232 -0.5220 0.8440
vn -0.1227 -0.5220 0.8441
vn -0.2007 -0.8021 0.5625
vn -0.0788 -0.8067 0.5857
vn 0.5158 -0.1665 0.8404
vn 0.5334 -0.0228 0.8455
vn 0.5953 -0.7323 -0.3307
vn 0.1524 0.9878 0.0317
vn -0.3432 -0.8763 0.3380
vn -0.6798 -0.7198 0.1407
vn -0.6238 -0.7726 0.1180
vn -0.5427 -0.7716 -0.3319
vn 0.2090 0.8601 -0.4654
vn 0.1945 0.9225 -0.3334
vn -0.1202 0.9838 -0.1328
vn 0.6030 -0.1735 0.7786
vn -0.6438 0.2812 -0.7116
vn 0.7106 -0.6784 0.1866
vn -0.0913 -0.9359 -0.3403
vn 0.7014 -0.1532 0.6961
vn 0.8854 -0.1167 0.4500
vn 0.1811 -0.1843 -0.9660
vn 0.0617 -0.0823 -0.9947
vn 0.6053 0.7960 -0.0027
vn 0.0369 0.9707 0.2376
vn 0.1829 -0.8134 -0.5523
vn 0.0284 -0.4231 -0.9056
vn -0.6879 0.5053 0.5211
vn -0.9814 0.1856 0.0483
vn -0.7285 -0.5430 -0.4176
vn -0.7258 -0.5291 -0.4396
vn -0.3766 0.6178 0.6903
vn -0.9378 0.3322 0.1012
vn -0.3140 -0.9471 0.0668
vn -0.8994 0.2814 0.3345
vn -0.9957 0.0496 0.0782
vn -0.5884 -0.3219 -0.7417
vn -0.1376 -0.7053 -0.6954
vn 0.9622 -0.0310 0.2705
vn 0.8412 -0.1342 0.5239
vn 0.8510 -0.0099 0.5251
vn 0.7788 -0.1197 0.6157
vn 0.2895 0.3662 -0.8844
vn 0.1959 0.4173 -0.8874
vn -0.9896 0.0708 0.1253
vn -0.1606 -0.9870 -0.0034
vn -0.9956 0.0519 0.0785
vn -0.8260 -0.3474 0.4438
vn -0.7105 -0.6784 -0.1870
vn -0.0382 -0.3131 -0.9490
vn 0.0031 -0.1312 -0.9914
vn 0.6164 0.3119 0.7230
vn 0.9260 0.1130 0.3603
vn 0.9084 -0.4174 0.0222
vn 0.8876 -0.4496 0.1003
vn 0.3841 0.4521 0.8050
vn 0.8694 0.1915 0.4554
vn 0.1817 -0.9833 0.0036
vn -0.3750 0.9201 -0.1131
vn -0.4685 0.8576 -0.2122
vn 0.2321 -0.0026 -0.9727
vn 0.1523 -0.0563 -0.9867
vn -0.9223 -0.1272 0.3648
vn -0.9929 -0.0428 0.1113
vn -0.1544 -0.9610 -0.2294
vn -0.7761 -0.6236 -0.0940
vn 0.7276 0.3098 0.6121
vn 0.9145 0.1284 0.3836
vn 0.9303 0.0776 0.3585
vn 0.9106 0.0781 0.4059
vn 0.3022 -0.9092 -0.2864
vn 0.7952 -0.2439 -0.5552
vn 0.4339 -0.6923 -0.5766
vn -0.0423 0.6959 -0.7169
vn -0.1255 0.6416 -0.7567
vn -0.9390 -0.2464 0.2399
vn -0.8747 -0.3768 0.3049
vn -0.9260 -0.3071 0.2196
vn -0.9834 -0.1773 -0.0386
vn -0.1294 -0.4050 0.9051
vn 0.8164 -0.5336 0.2210
vn 0.4845 0.8621 0.1485
vn -0.0736 0.8911 0.4478
vn 0.8658 0.2013 -0.4582
vn 0.9577 0.0894 -0.2734
vn 0.9189 -0.0445 -0.3919
vn 0.9249 -0.0502 -0.3769
vn 0.9581 0.2007 -0.2045
vn 0.8848 0.1837 -0.4282
vn -0.6937 0.5987 -0.4005
vn -0.7418 0.6474 -0.1750
vn -0.8417 0.4142 -0.3463
vn -0.8340 0.4164 -0.3620
vn -0.8239 0.4684 -0.3190
vn -0.9578 0.2796 0.0668
vn -0.7323 -0.1781 0.6572
vn -0.7533 -0.0341 0.6568
vn -0.4633 -0.7404 -0.4870
vn -0.1719 0.9850 -0.0158
vn 0.2468 -0.8710 0.4248
vn 0.6225 -0.7085 0.3325
vn 0.1371 0.9860 -0.0951
vn -0.1058 0.9198 -0.3778
vn -0.0808 0.8576 -0.5080
vn 0.6280 -0.7617 -0.1595
vn 0.5763 -0.7623 0.2947
vn 0.3396 0.4123 0.8454
vn 0.4604 0.1508 0.8748
vn -0.1138 0.6668 0.7365
vn -0.6860 0.1381 0.7144
vn -0.5609 0.4144 0.7167
vn -0.5030 0.8643 0.0012
vn -0.8363 -0.5478 -0.0227
vn -0.7802 -0.6047 -0.1600
vn 0.8031 -0.5913 0.0731
vn 0.8150 -0.5763 0.0610
vn 0.9114 -0.3815 0.1543
vn 0.9683 -0.2298 0.0977
vn 0.3436 0.4827 -0.8056
vn 0.5132 0.8273 -0.2285
vn -0.0963 0.7864 0.6102
vn -0.4394 0.8190 -0.3689
vn -0.1062 0.4790 -0.8714
vn -0.9515 -0.2462 -0.1845
vn -0.9107 -0.3970 -0.1137
vn -0.7882 -0.5901 -0.1748
vn -0.8163 -0.5169 0.2579
vn -0.9243 -0.3060 0.2282
vn -0.9166 0.3342 0.2195
vn -0.8380 0.4351 0.3294
vn -0.8233 0.4600 0.3324
vn 0.6853 0.4728 0.5539
vn 0.7007 0.4480 0.5553
vn 0.8090 0.3489 0.4731
vn 0.8263 -0.2841 0.4863
vn 0.7062 -0.4963 0.5050
vn 0.6992 -0.5930 0.3994
vn -0.7859 -0.5931 0.1748
vn -0.8106 -0.5797 -0.0830
vn -0.5556 -0.7163 -0.4221
vn -0.6640 -0.6197 -0.4185
vn -0.7393 0.4671 -0.4850
vn -0.8174 0.5681 -0.0950
vn -0.7103 0.6400 -0.2930
vn -0.1938 0.0336 -0.9805
vn 0.0426 -0.3658 -0.9297
vn 0.1391 -0.3257 -0.9352
vn 0.1149 -0.3263 -0.9383
vn 0.2063 -0.0458 -0.9774
vn 0.6446 0.7543 -0.1246
vn 0.7665 0.5927 0.2472
vn 0.8396 0.4806 -0.2532
vn 0.8587 0.4214 -0.2917
vn 0.7466 0.5884 -0.3105
vn 0.6119 0.7707 0.1776
vn -0.6499 0.7599 -0.0077
vn -0.6357 0.5764 -0.5134
vn -0.7456 0.4076 -0.5272
vn 0.8593 -0.4524 -0.2385
vn 0.5051 -0.7766 -0.3764
vn 0.7565 -0.5899 0.2824
vn 0.7500 -0.6436 -0.1523
vn 0.7739 -0.6284 0.0788
vn -0.6729 -0.6559 -0.3421
vn -0.6637 -0.6557 -0.3599
vt 0.881836 0.182129
vt 0.836426 0.160645
vt 0.836914 0.132324
vt 0.835938 0.207031
vt 0.862793 0.226562
vt 0.834473 0.311523
vt 0.851562 0.311035
vt 0.833008 0.418945
vt 0.861816 0.371582
vt 0.120117 0.826172
vt 0.216309 0.871094
vt 0.147461 0.798828
vt 0.201660 0.889648
vt 0.264160 0.912109
vt 0.186035 0.916504
vt 0.187500 0.947754
vt 0.122559 0.893555
vt 0.075195 0.897949
vt 0.066406 0.835449
vt 0.316406 0.273926
vt 0.238281 0.344727
vt 0.327637 0.371094
vt 0.235352 0.293457
vt 0.228516 0.214844
vt 0.266113 0.213379
vt 0.223145 0.089844
vt 0.319824 0.119141
vt 0.143066 0.091309
vt 0.198730 0.217285
vt 0.163086 0.275879
vt 0.160156 0.345703
vt 0.067383 0.270508
vt 0.056152 0.383301
vt 0.135742 0.205566
vt 0.050781 0.118652
vt 0.110840 0.046875
vt 0.496094 0.346191
vt 0.470703 0.278320
vt 0.412598 0.340820
vt 0.514648 0.268555
vt 0.548828 0.349121
vt 0.548340 0.262207
vt 0.663086 0.331055
vt 0.601562 0.271973
vt 0.569336 0.161133
vt 0.659668 0.150879
vt 0.495605 0.165527
vt 0.403809 0.160645
vt 0.473633 0.095703
vt 0.107910 0.517090
vt 0.075195 0.626953
vt 0.011719 0.566895
vt 0.171387 0.609863
vt 0.151367 0.713867
vt 0.029785 0.699219
vt 0.805176 0.371094
vt 0.816895 0.310547
vt 0.808594 0.226074
vt 0.790527 0.181152
vt 0.239746 0.677246
vt 0.245117 0.737793
vt 0.296387 0.512207
vt 0.322754 0.644043
vt 0.285645 0.709961
vt 0.291504 0.790039
vt 0.416992 0.563965
vt 0.518555 0.641602
vt 0.522949 0.834961
vt 0.445801 0.937988
vt 0.440430 0.404297
vt 0.564941 0.555664
vt 0.729492 0.613770
vt 0.736816 0.738770
vt 0.870117 0.616211
vt 0.923828 0.720215
vt 0.933105 0.644043
vt 0.896973 0.540039
vt 0.574219 0.939941
vt 0.717285 0.495117
s 0
usemtl Bull
f 574/127/191 575/128/191 576/129/191
f 577/127/192 578/130/192 579/128/192
f 580/127/193 581/131/193 582/130/193
f 583/131/194 584/132/194 585/130/194
f 586/131/195 587/133/195 588/132/195
f 589/132/196 590/133/196 591/134/196
f 592/134/197 593/133/197 594/135/197
f 595/136/198 596/137/198 597/138/198
f 598/136/199 599/139/199 600/137/199
f 601/139/200 602/140/200 603/137/200
f 604/141/201 605/140/201 606/139/201
f 607/142/202 608/140/202 609/141/202
f 610/143/203 611/142/203 612/141/203
f 613/144/204 614/142/204 615/143/204
f 616/144/205 617/143/205 618/145/205
f 619/145/206 620/143/206 621/136/206
f 622/136/207 623/143/207 624/139/207
f 625/143/208 626/141/208 627/139/208
f 628/146/209 629/147/209 630/148/209
f 631/146/210 632/149/210 633/147/210
f 634/146/211 635/150/211 636/149/211
f 637/146/212 638/151/212 639/150/212
f 640/150/213 641/151/213 642/152/213
f 643/151/214 644/153/214 645/152/214
f 646/152/215 647/154/215 648/150/215
f 649/150/216 650/154/216 651/155/216
f 652/150/217 653/155/217 654/149/217
f 655/149/218 656/155/218 657/156/218
f 658/156/219 659/147/219 660/149/219
f 661/156/220 662/157/220 663/147/220
f 664/157/221 665/156/221 666/158/221
f 667/158/222 668/159/222 669/157/222
f 670/156/223 671/160/223 672/158/223
f 673/155/224 674/160/224 675/156/224
f 676/155/225 677/161/225 678/160/225
f 679/154/226 680/161/226 681/155/226
f 682/162/227 683/161/227 684/154/227
f 685/163/228 686/164/228 687/165/228
f 688/163/229 689/166/229 690/164/229
f 691/166/230 692/163/230 693/167/230
f 694/167/231 695/168/231 696/166/231
f 697/168/232 698/167/232 699/169/232
f 700/169/233 701/170/233 702/168/233
f 703/170/234 704/171/234 705/168/234
f 706/170/235 707/172/235 708/171/235
f 709/168/236 710/171/236 711/173/236
f 712/168/237 713/173/237 714/166/237
f 715/166/238 716/173/238 717/174/238
f 718/175/239 719/174/239 720/173/239
f 721/166/240 722/174/240 723/164/240
f 724/146/241 725/148/241 726/147/241
f 727/147/242 728/149/242 729/146/242
f 730/156/243 731/149/243 732/147/243
f 733/147/244 734/157/244 735/156/244
f 736/157/245 737/158/245 738/156/245
f 739/157/246 740/159/246 741/158/246
f 742/158/247 743/160/247 744/156/247
f 745/156/248 746/160/248 747/155/248
f 748/155/249 749/160/249 750/161/249
f 751/161/250 752/154/250 753/155/250
f 754/162/251 755/154/251 756/161/251
f 757/149/252 758/156/252 759/155/252
f 760/155/253 761/150/253 762/149/253
f 763/150/254 764/155/254 765/154/254
f 766/154/255 767/152/255 768/150/255
f 769/150/256 770/152/256 771/151/256
f 772/151/257 773/152/257 774/153/257
f 775/151/258 776/146/258 777/150/258
f 778/146/259 779/149/259 780/150/259
f 781/163/260 782/165/260 783/164/260
f 784/164/261 785/166/261 786/163/261
f 787/166/262 788/164/262 789/174/262
f 790/166/263 791/174/263 792/173/263
f 793/175/264 794/173/264 795/174/264
f 796/166/265 797/167/265 798/163/265
f 799/167/266 800/166/266 801/168/266
f 802/168/267 803/166/267 804/173/267
f 805/168/268 806/173/268 807/171/268
f 808/170/269 809/168/269 810/171/269
f 811/170/270 812/171/270 813/172/270
f 814/168/271 815/170/271 816/169/271
f 817/169/272 818/167/272 819/168/272
f 820/176/273 821/177/273 822/178/273
f 823/176/274 824/179/274 825/177/274
f 826/177/275 827/179/275 828/180/275
f 829/181/276 830/177/276 831/180/276
f 832/134/277 833/182/277 834/183/277
f 835/183/278 836/132/278 837/134/278
f 838/184/279 839/132/279 840/183/279
f 841/184/280 842/130/280 843/132/280
f 844/130/281 845/184/281 846/185/281
f 847/130/282 848/185/282 849/129/282
f 850/130/283 851/129/283 852/127/283
f 853/130/284 854/127/284 855/131/284
f 856/131/285 857/132/285 858/130/285
f 859/131/286 860/133/286 861/132/286
f 862/132/287 863/133/287 864/134/287
f 865/134/288 866/133/288 867/135/288
f 868/136/289 869/138/289 870/137/289
f 871/136/290 872/137/290 873/139/290
f 874/139/291 875/137/291 876/140/291
f 877/141/292 878/139/292 879/140/292
f 880/142/293 881/141/293 882/140/293
f 883/143/294 884/141/294 885/142/294
f 886/141/295 887/143/295 888/139/295
f 889/139/296 890/143/296 891/136/296
f 892/145/297 893/136/297 894/143/297
f 895/144/298 896/145/298 897/143/298
f 898/144/299 899/143/299 900/142/299
f 901/186/300 902/180/300 903/179/300
f 904/187/301 905/180/301 906/186/301
f 907/187/302 908/187/302 909/180/302
f 910/187/303 911/186/303 912/180/303
f 913/186/304 914/179/304 915/180/304
f 916/177/305 917/180/305 918/179/305
f 919/176/306 920/177/306 921/179/306
f 922/179/307 923/188/307 924/176/307
f 925/179/308 926/176/308 927/188/308
f 928/189/309 929/179/309 930/188/309
f 931/186/310 932/179/310 933/189/310
f 934/189/311 935/190/311 936/186/311
f 937/189/312 938/191/312 939/190/312
f 940/187/313 941/190/313 942/191/313
f 943/187/314 944/191/314 945/187/314
f 946/187/315 947/191/315 948/190/315
f 949/189/316 950/190/316 951/191/316
f 952/189/317 953/186/317 954/190/317
f 955/186/318 956/189/318 957/179/318
f 958/189/319 959/188/319 960/179/319
f 961/188/320 962/189/320 963/192/320
f 964/192/321 965/189/321 966/193/321
f 967/194/322 968/193/322 969/189/322
f 970/189/323 971/191/323 972/194/323
f 973/195/324 974/194/324 975/191/324
f 976/191/325 977/194/325 978/195/325
f 979/194/326 980/191/326 981/189/326
f 982/189/327 983/193/327 984/194/327
f 985/193/328 986/189/328 987/192/328
f 988/192/329 989/189/329 990/188/329
f 991/188/330 992/196/330 993/192/330
f 994/192/331 995/196/331 996/188/331
f 997/197/332 998/196/332 999/192/332
f 1000/197/333 1001/198/333 1002/196/333
f 1003/197/334 1004/193/334 1005/198/334
f 1006/199/335 1007/198/335 1008/193/335
f 1009/198/336 1010/199/336 1011/200/336
f 1012/200/337 1013/199/337 1014/201/337
f 1015/201/338 1016/202/338 1017/200/338
f 1018/200/339 1019/202/339 1020/203/339
f 1021/203/340 1022/202/340 1023/202/340
f 1024/202/341 1025/200/341 1026/203/341
f 1027/200/342 1028/202/342 1029/201/342
f 1030/199/343 1031/200/343 1032/201/343
f 1033/198/344 1034/200/344 1035/199/344
f 1036/199/345 1037/193/345 1038/198/345
f 1039/199/346 1040/194/346 1041/193/346
f 1042/204/347 1043/194/347 1044/199/347
f 1045/194/348 1046/204/348 1047/195/348
f 1048/194/349 1049/195/349 1050/204/349
f 1051/204/350 1052/199/350 1053/194/350
f 1054/193/351 1055/194/351 1056/199/351
f 1057/198/352 1058/193/352 1059/197/352
f 1060/197/353 1061/196/353 1062/198/353
f 1063/197/354 1064/192/354 1065/196/354
f 1066/196/355 1067/205/355 1068/198/355
f 1069/198/356 1070/205/356 1071/203/356
f 1072/203/357 1073/205/357 1074/198/357
f 1075/205/358 1076/196/358 1077/198/358
